<svg width="32" height="32" viewBox="0 0 32 32" fill="none" xmlns="http://www.w3.org/2000/svg">
<g clip-path="url(#clip0_380_10)">
<path d="M22 26H20V17.76L16.77 21.64C16.6762 21.7532 16.5585 21.8444 16.4254 21.907C16.2923 21.9695 16.1471 22.002 16 22.002C15.8529 22.002 15.7077 21.9695 15.5746 21.907C15.4415 21.8444 15.3238 21.7532 15.23 21.64L12 17.76V26H10V15C10.0001 14.7945 10.0635 14.594 10.1816 14.4258C10.2997 14.2576 10.4667 14.1299 10.66 14.06C10.8534 13.9897 11.0638 13.9808 11.2624 14.0345C11.4611 14.0882 11.6383 14.2019 11.77 14.36L16 19.44L20.23 14.36C20.3617 14.2019 20.5389 14.0882 20.7376 14.0345C20.9362 13.9808 21.1466 13.9897 21.34 14.06C21.5333 14.1299 21.7003 14.2576 21.8184 14.4258C21.9365 14.594 21.9999 14.7945 22 15V26Z" fill="white"/>
<path d="M4.16001 14.65L1.16001 12.9C1.07334 12.8501 0.977685 12.8178 0.878513 12.8049C0.779341 12.7919 0.678593 12.7986 0.58202 12.8246C0.485447 12.8506 0.394941 12.8954 0.315669 12.9564C0.236397 13.0174 0.169912 13.0934 0.12001 13.18C0.0701076 13.2667 0.0377654 13.3624 0.0248298 13.4615C0.0118941 13.5607 0.0186185 13.6615 0.0446189 13.758C0.0706193 13.8546 0.115387 13.9451 0.176365 14.0244C0.237343 14.1037 0.313338 14.1701 0.40001 14.22L3.40001 16C3.48623 16.0604 3.58405 16.1022 3.68727 16.1228C3.79048 16.1434 3.89685 16.1423 3.99963 16.1196C4.10241 16.0969 4.19936 16.0532 4.28434 15.9911C4.36931 15.929 4.44046 15.8499 4.49328 15.7588C4.5461 15.6678 4.57943 15.5668 4.59116 15.4622C4.6029 15.3576 4.59278 15.2517 4.56145 15.1512C4.53011 15.0507 4.47825 14.9579 4.40915 14.8785C4.34005 14.7991 4.25521 14.7349 4.16001 14.69V14.65Z" fill="white"/>
<path d="M8.29003 10.52C8.33773 10.6037 8.4015 10.677 8.47766 10.7359C8.55383 10.7948 8.6409 10.838 8.73384 10.8631C8.82679 10.8882 8.92378 10.8947 9.01924 10.8821C9.11469 10.8696 9.20672 10.8383 9.29003 10.79C9.4567 10.6917 9.57891 10.5327 9.63109 10.3463C9.68327 10.16 9.66139 9.96063 9.57003 9.79002L7.83003 6.79002C7.78012 6.70335 7.71364 6.62736 7.63437 6.56638C7.5551 6.5054 7.46459 6.46063 7.36802 6.43463C7.27144 6.40863 7.1707 6.40191 7.07152 6.41484C6.97235 6.42778 6.8767 6.46012 6.79003 6.51002C6.61498 6.61081 6.48715 6.777 6.43464 6.97203C6.38213 7.16707 6.40924 7.37498 6.51003 7.55002L8.29003 10.52Z" fill="white"/>
<path d="M16 9C16.2016 9 16.3949 8.91993 16.5374 8.7774C16.6799 8.63487 16.76 8.44156 16.76 8.24V4.76C16.76 4.55844 16.6799 4.36513 16.5374 4.2226C16.3949 4.08007 16.2016 4 16 4C15.7984 4 15.6051 4.08007 15.4626 4.2226C15.3201 4.36513 15.24 4.55844 15.24 4.76V8.25C15.2426 8.44983 15.3239 8.64058 15.4661 8.78095C15.6083 8.92132 15.8001 9.00002 16 9Z" fill="white"/>
<path d="M22.68 10.79C22.7916 10.8583 22.9191 10.8962 23.05 10.9C23.1837 10.9003 23.3151 10.8654 23.431 10.7986C23.5469 10.7319 23.6431 10.6358 23.71 10.52L25.46 7.52C25.5607 7.34495 25.5879 7.13704 25.5354 6.94201C25.4828 6.74697 25.355 6.58078 25.18 6.48C25.0049 6.37921 24.797 6.3521 24.602 6.40461C24.4069 6.45712 24.2407 6.58495 24.14 6.76L22.4 9.76C22.3501 9.84585 22.3177 9.94076 22.3048 10.0392C22.2919 10.1377 22.2987 10.2377 22.3247 10.3335C22.3508 10.4293 22.3956 10.519 22.4566 10.5974C22.5176 10.6757 22.5935 10.7412 22.68 10.79Z" fill="white"/>
<path d="M31.9 13.18C31.7999 13.0152 31.6409 12.8946 31.4553 12.8426C31.2696 12.7906 31.0711 12.8111 30.9 12.9L27.9 14.65C27.7209 14.7429 27.5861 14.903 27.5252 15.0952C27.4642 15.2874 27.4821 15.496 27.575 15.675C27.6678 15.8541 27.8279 15.9889 28.0202 16.0498C28.2124 16.1108 28.4209 16.0929 28.6 16L31.6 14.26C31.6929 14.2111 31.7748 14.1437 31.8407 14.062C31.9065 13.9803 31.955 13.8859 31.9831 13.7848C32.0112 13.6836 32.0183 13.5778 32.004 13.4738C31.9897 13.3698 31.9543 13.2698 31.9 13.18Z" fill="white"/>
</g>
<defs>
<clipPath id="clip0_380_10">
<rect width="32" height="32" fill="white"/>
</clipPath>
</defs>
</svg>
