<svg width="24" height="24" viewBox="0 0 24 24" fill="none" xmlns="http://www.w3.org/2000/svg">
<g clip-path="url(#clip0_382_28)">
<path d="M23.687 11.709L22.692 11.093C22.6837 10.9963 22.6743 10.8996 22.664 10.803L23.519 10.006C23.5612 9.96602 23.5925 9.91595 23.6101 9.86052C23.6277 9.80509 23.631 9.7461 23.6196 9.68906C23.6082 9.63203 23.5826 9.57881 23.545 9.53438C23.5075 9.48996 23.4593 9.45578 23.405 9.43504L22.312 9.02604C22.2849 8.93154 22.2563 8.83752 22.226 8.74404L22.908 7.79704C22.9422 7.74972 22.9637 7.69443 22.9705 7.63644C22.9772 7.57845 22.9691 7.51969 22.9467 7.46576C22.9243 7.41183 22.8886 7.36451 22.8427 7.32833C22.7969 7.29214 22.7426 7.26829 22.685 7.25904L21.533 7.07204C21.488 6.98497 21.4417 6.89863 21.394 6.81304L21.878 5.75004C21.928 5.64204 21.917 5.51604 21.851 5.41804C21.785 5.32004 21.673 5.26204 21.554 5.26604L20.384 5.30704C20.3239 5.23103 20.2622 5.15635 20.199 5.08304L20.468 3.94404C20.4812 3.88724 20.4798 3.828 20.4638 3.77192C20.4478 3.71583 20.4177 3.66476 20.3765 3.62352C20.3352 3.58227 20.2842 3.55223 20.2281 3.53622C20.172 3.52022 20.1128 3.51878 20.056 3.53204L18.917 3.80104C18.8426 3.73858 18.7676 3.67691 18.692 3.61604L18.733 2.44604C18.7357 2.3875 18.7234 2.32923 18.697 2.27689C18.6706 2.22455 18.6312 2.17992 18.5825 2.14732C18.5338 2.11472 18.4775 2.09526 18.419 2.09083C18.3606 2.0864 18.302 2.09715 18.249 2.12204L17.186 2.60704C17.1 2.56004 17.014 2.51304 16.927 2.46804L16.739 1.31504C16.7292 1.25768 16.7051 1.20374 16.6688 1.15825C16.6325 1.11276 16.5853 1.07722 16.5316 1.05494C16.4778 1.03266 16.4193 1.02438 16.3615 1.03087C16.3037 1.03736 16.2484 1.0584 16.201 1.09204L15.253 1.77404C15.1595 1.74405 15.0655 1.71571 14.971 1.68904L14.562 0.596035C14.5412 0.5417 14.507 0.493511 14.4626 0.455973C14.4182 0.418435 14.365 0.392773 14.3079 0.381386C14.2509 0.369999 14.1919 0.373259 14.1365 0.39086C14.081 0.408462 14.031 0.439831 13.991 0.482035L13.194 1.33804C13.0974 1.32717 13.0008 1.31783 12.904 1.31004L12.288 0.315035C12.2573 0.265411 12.2145 0.224447 12.1636 0.196036C12.1126 0.167624 12.0553 0.15271 11.997 0.15271C11.9386 0.15271 11.8813 0.167624 11.8304 0.196036C11.7794 0.224447 11.7366 0.265411 11.706 0.315035L11.09 1.31004C10.993 1.31804 10.896 1.32804 10.8 1.33804L10.002 0.482035C9.9622 0.439309 9.91217 0.407469 9.85662 0.389545C9.80108 0.371622 9.74187 0.368211 9.68464 0.379638C9.6274 0.391065 9.57404 0.416949 9.52964 0.454827C9.48524 0.492705 9.45127 0.541317 9.43096 0.596035L9.02196 1.68904C8.92696 1.71604 8.83396 1.74504 8.73996 1.77404L7.79296 1.09204C7.74549 1.0584 7.69026 1.03736 7.63245 1.03087C7.57463 1.02438 7.51611 1.03266 7.46237 1.05494C7.40862 1.07722 7.36141 1.11276 7.32513 1.15825C7.28886 1.20374 7.26472 1.25768 7.25496 1.31504L7.06696 2.46804C6.9799 2.51299 6.89355 2.55933 6.80796 2.60704L5.74496 2.12204C5.69186 2.09775 5.63342 2.08746 5.57522 2.09216C5.51702 2.09685 5.46099 2.11637 5.41247 2.14885C5.36394 2.18133 5.32454 2.2257 5.29802 2.27772C5.2715 2.32974 5.25874 2.38769 5.26096 2.44604L5.30196 3.61604C5.22596 3.67604 5.15096 3.73804 5.07696 3.80104L3.93796 3.53204C3.88116 3.51878 3.82193 3.52022 3.76584 3.53622C3.70976 3.55223 3.65868 3.58227 3.61744 3.62352C3.5762 3.66476 3.54616 3.71583 3.53015 3.77192C3.51414 3.828 3.5127 3.88724 3.52596 3.94404L3.79396 5.08304C3.73196 5.15704 3.66996 5.23204 3.60996 5.30704L2.43996 5.26604C2.38161 5.26382 2.32367 5.27658 2.27164 5.3031C2.21962 5.32962 2.17526 5.36902 2.14278 5.41754C2.11029 5.46606 2.09078 5.52209 2.08608 5.5803C2.08139 5.6385 2.09167 5.69693 2.11596 5.75004L2.60096 6.81304C2.55323 6.89861 2.50689 6.98496 2.46196 7.07204L1.30996 7.25904C1.25261 7.26879 1.19866 7.29294 1.15318 7.32921C1.10769 7.36548 1.07214 7.4127 1.04987 7.46644C1.02759 7.52019 1.01931 7.57871 1.02579 7.63652C1.03228 7.69434 1.05333 7.74956 1.08696 7.79704L1.76896 8.74404C1.73896 8.83804 1.71096 8.93104 1.68296 9.02604L0.589961 9.43504C0.535626 9.45578 0.487437 9.48996 0.449899 9.53438C0.412361 9.57881 0.386699 9.63203 0.375312 9.68906C0.363925 9.7461 0.367184 9.80509 0.384786 9.86052C0.402388 9.91595 0.433757 9.96602 0.475961 10.006L1.33096 10.803C1.32009 10.8995 1.31076 10.9962 1.30296 11.093L0.307961 11.709C0.257863 11.7393 0.216429 11.782 0.18767 11.833C0.15891 11.884 0.143799 11.9415 0.143799 12C0.143799 12.0586 0.15891 12.1161 0.18767 12.1671C0.216429 12.2181 0.257863 12.2608 0.307961 12.291L1.30296 12.907C1.31096 13.004 1.32096 13.101 1.33096 13.197L0.475961 13.995C0.433234 14.0348 0.401394 14.0848 0.383471 14.1404C0.365547 14.1959 0.362136 14.2551 0.373563 14.3124C0.38499 14.3696 0.410875 14.423 0.448753 14.4674C0.486631 14.5118 0.535242 14.5457 0.589961 14.566L1.68296 14.975C1.70996 15.07 1.73896 15.164 1.76896 15.257L1.08696 16.204C1.05246 16.2513 1.03073 16.3067 1.02385 16.3649C1.01697 16.423 1.02518 16.482 1.04768 16.536C1.07019 16.5901 1.10623 16.6374 1.15234 16.6735C1.19846 16.7096 1.25308 16.7332 1.31096 16.742L2.46296 16.929C2.50796 17.016 2.55396 17.102 2.60196 17.188L2.11696 18.251C2.09267 18.3041 2.08239 18.3626 2.08708 18.4208C2.09178 18.479 2.11129 18.535 2.14378 18.5835C2.17626 18.6321 2.22062 18.6715 2.27264 18.698C2.32467 18.7245 2.38261 18.7373 2.44096 18.735L3.60996 18.694C3.67096 18.77 3.73196 18.845 3.79496 18.919L3.52696 20.059C3.51362 20.1158 3.51501 20.175 3.531 20.2311C3.547 20.2872 3.57706 20.3382 3.61835 20.3794C3.65963 20.4206 3.71076 20.4506 3.76688 20.4664C3.82299 20.4823 3.88223 20.4835 3.93896 20.47L5.07796 20.202C5.15196 20.265 5.22696 20.326 5.30296 20.386L5.26196 21.556C5.25935 21.6145 5.27187 21.6726 5.29831 21.7248C5.32475 21.777 5.36422 21.8215 5.41289 21.854C5.46156 21.8865 5.51779 21.9059 5.57614 21.9102C5.63449 21.9146 5.69298 21.9039 5.74596 21.879L6.80896 21.395C6.89496 21.443 6.98096 21.489 7.06796 21.534L7.25596 22.686C7.26558 22.7435 7.28962 22.7975 7.32583 22.8431C7.36205 22.8888 7.40925 22.9244 7.46302 22.9468C7.51678 22.9692 7.57535 22.9776 7.63323 22.9711C7.69112 22.9647 7.74642 22.9437 7.79396 22.91L8.74096 22.228C8.83496 22.258 8.92796 22.287 9.02296 22.314L9.43196 23.407C9.45204 23.4619 9.4859 23.5108 9.5303 23.5488C9.57469 23.5869 9.62812 23.6129 9.68546 23.6243C9.7428 23.6358 9.80212 23.6323 9.85772 23.6142C9.91332 23.5961 9.96333 23.564 10.003 23.521L10.801 22.666C10.897 22.677 10.994 22.686 11.091 22.695L11.707 23.69C11.7378 23.7394 11.7807 23.7802 11.8316 23.8084C11.8825 23.8366 11.9397 23.8515 11.998 23.8515C12.0562 23.8515 12.1134 23.8366 12.1643 23.8084C12.2153 23.7802 12.2581 23.7394 12.289 23.69L12.905 22.695C13.002 22.686 13.099 22.677 13.195 22.666L13.992 23.521C14.032 23.5632 14.082 23.5946 14.1375 23.6122C14.1929 23.6298 14.2519 23.6331 14.3089 23.6217C14.366 23.6103 14.4192 23.5846 14.4636 23.5471C14.508 23.5096 14.5422 23.4614 14.563 23.407L14.972 22.314C15.067 22.287 15.161 22.258 15.254 22.228L16.201 22.91C16.2483 22.9445 16.3037 22.9663 16.3618 22.9731C16.42 22.98 16.4789 22.9718 16.5329 22.9493C16.587 22.9268 16.6343 22.8908 16.6704 22.8447C16.7065 22.7985 16.7301 22.7439 16.739 22.686L16.927 21.534C17.014 21.489 17.1 21.442 17.186 21.395L18.249 21.879C18.302 21.903 18.3603 21.913 18.4183 21.9083C18.4763 21.9035 18.5321 21.884 18.5805 21.8517C18.6289 21.8194 18.6683 21.7753 18.695 21.7236C18.7217 21.6719 18.7347 21.6142 18.733 21.556L18.692 20.386C18.768 20.326 18.843 20.265 18.916 20.202L20.055 20.47C20.1117 20.4832 20.1708 20.4818 20.2268 20.4658C20.2827 20.4498 20.3337 20.4199 20.3749 20.3788C20.4162 20.3377 20.4462 20.2868 20.4623 20.2308C20.4784 20.1749 20.48 20.1158 20.467 20.059L20.199 18.919C20.261 18.845 20.323 18.77 20.383 18.694L21.553 18.735C21.6115 18.7378 21.6698 18.7254 21.7221 18.6991C21.7744 18.6727 21.8191 18.6333 21.8517 18.5846C21.8843 18.5359 21.9037 18.4796 21.9082 18.4211C21.9126 18.3627 21.9018 18.3041 21.877 18.251L21.393 17.188C21.44 17.102 21.487 17.016 21.532 16.929L22.684 16.742C22.7413 16.7323 22.7953 16.7081 22.8407 16.6719C22.8862 16.6356 22.9218 16.5884 22.9441 16.5346C22.9663 16.4809 22.9746 16.4224 22.9681 16.3645C22.9616 16.3067 22.9406 16.2515 22.907 16.204L22.225 15.257L22.311 14.975L23.404 14.566C23.4587 14.5457 23.5073 14.5118 23.5452 14.4674C23.583 14.423 23.6089 14.3696 23.6204 14.3124C23.6318 14.2551 23.6284 14.1959 23.6105 14.1404C23.5925 14.0848 23.5607 14.0348 23.518 13.995L22.663 13.197C22.673 13.101 22.683 13.004 22.691 12.907L23.686 12.291C23.7361 12.2608 23.7775 12.2181 23.8063 12.1671C23.835 12.1161 23.8501 12.0586 23.8501 12C23.8501 11.9415 23.835 11.884 23.8063 11.833C23.7775 11.782 23.7371 11.7393 23.687 11.709ZM17.028 19.962C16.9374 19.9427 16.8516 19.9056 16.7753 19.8531C16.6991 19.8006 16.6339 19.7335 16.5836 19.6558C16.482 19.4988 16.4468 19.3079 16.486 19.125C16.5053 19.0345 16.5423 18.9486 16.5949 18.8724C16.6474 18.7962 16.7145 18.731 16.7922 18.6807C16.9492 18.579 17.1401 18.5439 17.323 18.583C17.4135 18.6025 17.4993 18.6395 17.5756 18.6922C17.6518 18.7448 17.7169 18.8119 17.7672 18.8896C17.8174 18.9674 17.8519 19.0543 17.8686 19.1454C17.8853 19.2365 17.8839 19.33 17.8645 19.4205C17.845 19.5111 17.8079 19.5969 17.7553 19.6731C17.7027 19.7493 17.6356 19.8145 17.5579 19.8647C17.4801 19.915 17.3932 19.9495 17.3021 19.9662C17.211 19.9829 17.1185 19.9815 17.028 19.962ZM16.69 17.676C16.6075 17.6583 16.5223 17.657 16.4393 17.6722C16.3563 17.6875 16.2772 17.7189 16.2064 17.7648C16.1356 17.8107 16.0746 17.8701 16.0268 17.9397C15.979 18.0092 15.9454 18.0875 15.928 18.17L15.575 19.818C14.485 20.313 13.275 20.588 12 20.588C10.7392 20.5899 9.49329 20.3154 8.34996 19.784L7.99696 18.136C7.97951 18.0535 7.94592 17.9753 7.89813 17.9058C7.85033 17.8363 7.78927 17.7769 7.71846 17.7311C7.64765 17.6853 7.56848 17.6539 7.4855 17.6388C7.40253 17.6237 7.31738 17.6251 7.23496 17.643L5.77996 17.955C5.5096 17.6766 5.25836 17.3803 5.02796 17.068H12.108C12.188 17.068 12.242 17.054 12.242 16.981V14.476C12.242 14.403 12.189 14.389 12.108 14.389H10.037V12.801H12.277C12.481 12.801 13.37 12.859 13.654 13.995C13.743 14.344 13.938 15.481 14.072 15.845C14.205 16.253 14.747 17.068 15.325 17.068H18.853C18.8959 17.0674 18.9388 17.0631 18.981 17.055C18.7363 17.3874 18.4683 17.7018 18.179 17.996L16.69 17.676ZM6.89696 19.928C6.80641 19.9475 6.71293 19.9489 6.62183 19.9322C6.53074 19.9155 6.44383 19.881 6.36606 19.8307C6.28829 19.7805 6.22119 19.7153 6.16858 19.6391C6.11598 19.5629 6.0789 19.4771 6.05946 19.3865C6.04003 19.296 6.03861 19.2025 6.05531 19.1114C6.072 19.0203 6.10648 18.9334 6.15676 18.8556C6.20704 18.7779 6.27215 18.7108 6.34837 18.6582C6.42458 18.6056 6.51041 18.5685 6.60096 18.549C6.78383 18.5098 6.9748 18.5448 7.13186 18.6463C7.28892 18.7479 7.39921 18.9077 7.43846 19.0905C7.47771 19.2734 7.44271 19.4644 7.34116 19.6214C7.23961 19.7785 7.07983 19.8888 6.89696 19.928ZM4.21096 9.03604C4.252 9.12111 4.27552 9.21356 4.28013 9.30789C4.28474 9.40223 4.27035 9.49654 4.23782 9.5852C4.20528 9.67387 4.15525 9.7551 4.09071 9.82406C4.02617 9.89302 3.94844 9.94831 3.86211 9.98665C3.77579 10.025 3.68265 10.0456 3.58821 10.0472C3.49378 10.0489 3.39997 10.0315 3.31237 9.99619C3.22477 9.96088 3.14516 9.90832 3.07827 9.84164C3.01137 9.77496 2.95856 9.69552 2.92296 9.60804C2.85394 9.43841 2.85363 9.24858 2.92211 9.07873C2.99058 8.90888 3.12246 8.77234 3.28983 8.69801C3.4572 8.62368 3.64693 8.61739 3.81885 8.68048C3.99077 8.74358 4.1314 8.87109 4.21096 9.03604ZM3.38596 10.993L4.90196 10.319C4.97908 10.2848 5.0487 10.2357 5.10683 10.1745C5.16496 10.1134 5.21047 10.0414 5.24075 9.96261C5.27102 9.88385 5.28548 9.7999 5.28328 9.71555C5.28109 9.6312 5.26229 9.54811 5.22796 9.47104L4.91596 8.76504H6.14396V14.299H3.66696C3.3615 13.225 3.26642 12.1021 3.38696 10.992L3.38596 10.993ZM10.038 10.456V8.82504H12.962C13.113 8.82504 14.028 9.00004 14.028 9.68404C14.028 10.252 13.326 10.456 12.749 10.456H10.038ZM20.664 11.924C20.664 12.14 20.656 12.355 20.64 12.567H19.751C19.662 12.567 19.626 12.625 19.626 12.713V13.121C19.626 14.082 19.084 14.291 18.609 14.344C18.157 14.395 17.656 14.155 17.594 13.878C17.327 12.378 16.883 12.057 16.181 11.504C17.052 10.951 17.958 10.135 17.958 9.04304C17.958 7.86404 17.149 7.12104 16.598 6.75604C15.825 6.24604 14.969 6.14404 14.738 6.14404H5.54496C6.81546 4.72341 8.5192 3.7617 10.392 3.40804L11.476 4.54504C11.534 4.60615 11.6036 4.65518 11.6807 4.68933C11.7578 4.72348 11.8408 4.74206 11.9251 4.74401C12.0094 4.74596 12.0932 4.73124 12.1718 4.7007C12.2504 4.67016 12.3221 4.62439 12.383 4.56604L13.595 3.40604C14.8308 3.63781 16.0013 4.13566 17.0255 4.86506C18.0497 5.59446 18.9029 6.53793 19.526 7.63004L18.696 9.50504C18.6272 9.66077 18.6229 9.83741 18.6839 9.99632C18.745 10.1552 18.8666 10.2835 19.022 10.353L20.62 11.063C20.648 11.347 20.662 11.633 20.662 11.924H20.664ZM11.477 2.44204C11.5439 2.37821 11.6227 2.32819 11.7089 2.29483C11.7952 2.26148 11.8871 2.24543 11.9796 2.24761C12.072 2.24979 12.1631 2.27016 12.2477 2.30755C12.3323 2.34494 12.4086 2.39863 12.4725 2.46554C12.5363 2.53244 12.5863 2.61127 12.6197 2.69751C12.653 2.78375 12.6691 2.87571 12.6669 2.96815C12.6647 3.06059 12.6443 3.1517 12.6069 3.23627C12.5696 3.32084 12.5159 3.39721 12.449 3.46104C12.312 3.5792 12.1349 3.64019 11.9542 3.63141C11.7735 3.62263 11.6031 3.54474 11.4783 3.41385C11.3534 3.28296 11.2837 3.10909 11.2834 2.92821C11.2832 2.74732 11.3525 2.57326 11.477 2.44204ZM19.714 9.07003C19.871 8.71403 20.287 8.55404 20.642 8.71204C20.7696 8.76835 20.8776 8.86127 20.9524 8.97902C21.0272 9.09677 21.0654 9.23407 21.0622 9.37353C21.0589 9.51299 21.0143 9.64835 20.9341 9.76247C20.8539 9.8766 20.7416 9.96435 20.6115 10.0146C20.4813 10.0649 20.3392 10.0755 20.2031 10.045C20.067 10.0144 19.943 9.94422 19.8468 9.84319C19.7506 9.74217 19.6865 9.61487 19.6627 9.47742C19.6389 9.33997 19.6564 9.19854 19.713 9.07104L19.714 9.07003Z" fill="white"/>
</g>
<defs>
<clipPath id="clip0_382_28">
<rect width="24" height="24" fill="white"/>
</clipPath>
</defs>
</svg>
